<!DOCTYPE svg PUBLIC "-//W3C//DTD SVG 1.1//EN" "http://www.w3.org/Graphics/SVG/1.1/DTD/svg11.dtd">
<!-- Uploaded to: SVG Repo, www.svgrepo.com, Transformed by: SVG Repo Mixer Tools -->
<svg fill="#808080" width="800px" height="800px" viewBox="0 0 50 50" xmlns="http://www.w3.org/2000/svg">
<g id="SVGRepo_bgCarrier" stroke-width="0"/>
<g id="SVGRepo_tracerCarrier" stroke-linecap="round" stroke-linejoin="round"/>
<g id="SVGRepo_iconCarrier"> <path id="Bowling" d="M146.269,146.035A25.082,25.082,0,1,1,156,148,24.912,24.912,0,0,1,146.269,146.035ZM134,123a22,22,0,1,0,22-22A22.025,22.025,0,0,0,134,123Zm19,7a3,3,0,1,1,3,3A3,3,0,0,1,153,130Zm6-13a3,3,0,1,1,3,3A3,3,0,0,1,159,117Zm-12,0a3,3,0,1,1,3,3A3,3,0,0,1,147,117Z" transform="translate(-131 -98)"/> </g>
</svg>