<!DOCTYPE svg PUBLIC "-//W3C//DTD SVG 1.1//EN" "http://www.w3.org/Graphics/SVG/1.1/DTD/svg11.dtd">
<!-- Uploaded to: SVG Repo, www.svgrepo.com, Transformed by: SVG Repo Mixer Tools -->
<svg height="800px" width="800px" version="1.1" id="_x32_" xmlns="http://www.w3.org/2000/svg" xmlns:xlink="http://www.w3.org/1999/xlink" viewBox="0 0 512 512" xml:space="preserve" fill="#000000">
<g id="SVGRepo_bgCarrier" stroke-width="0"/>
<g id="SVGRepo_tracerCarrier" stroke-linecap="round" stroke-linejoin="round"/>
<g id="SVGRepo_iconCarrier"> <style type="text/css"> .st0{fill:#808080;} </style> <g> <path class="st0" d="M480.178,82.194c-19.625-19.642-46.892-31.84-76.859-31.831H210.967 c-35.136-0.009-67.098,14.289-90.106,37.332c-23.044,23.008-37.341,54.97-37.332,90.116v25.498V305.89c0,8.068,0,16.137,0,24.206 c0,3.453-0.252,6.576-0.772,9.257c-0.79,4.051-2.056,6.975-4.06,9.518c-2.039,2.533-5.032,5.023-10.68,7.348 c-0.512,0.2-0.945,0.295-1.675,0.304c-1.076,0.009-2.897-0.33-5.136-1.31c-2.238-0.963-4.824-2.507-7.296-4.329 c-3.201-2.351-7.244-3.323-11.174-2.689c-3.93,0.633-7.453,2.828-9.76,6.064l-30.209,42.46c-4.737,6.663-3.244,15.86,3.366,20.675 c11.938,8.684,25.507,15.096,39.7,19.381c14.203,4.278,29.047,6.428,43.692,6.437c14.28-0.009,28.37-2.056,41.47-6.402 c13.092-4.346,25.247-11.027,35.206-20.466c1.353-1.284,2.62-2.62,3.852-3.99v34.4c0,3.912,1.579,7.756,4.355,10.523 c2.776,2.776,6.611,4.364,10.533,4.364h42.52h36.69c3.921,0,7.756-1.587,10.523-4.364c2.768-2.768,4.364-6.611,4.364-10.523V382.75 h115.805v64.001c0,3.912,1.596,7.756,4.364,10.523c2.767,2.776,6.602,4.364,10.524,4.364h87.382c3.922,0,7.757-1.587,10.533-4.364 c2.776-2.768,4.355-6.611,4.355-10.523V159.053C512.018,129.086,499.819,101.818,480.178,82.194z M482.224,431.854h-57.599v-64.001 c0-3.921-1.588-7.756-4.364-10.524c-2.768-2.776-6.611-4.364-10.532-4.364H264.15c-3.922,0-7.766,1.588-10.533,4.364 c-2.776,2.768-4.364,6.603-4.364,10.524v64.001H227.46h-27.633v-99.233c0.902-7.036,1.405-13.153,1.683-17.699 c0.156-2.36,0.243-4.294,0.286-5.744c0.026-0.728,0.043-1.327,0.06-1.804c0-0.486,0.009-0.79,0.009-1.119l-0.009-0.382 c0-0.113,0-0.217-0.017-0.546c-0.018-0.191-0.018-0.373-0.087-0.998c-0.052-0.356-0.078-0.729-0.364-1.892 c-0.078-0.304-0.173-0.668-0.346-1.154c-0.296-0.763-0.591-1.761-1.892-3.678c-0.686-0.954-1.666-2.213-3.584-3.592 c-0.954-0.677-2.169-1.362-3.643-1.883c-1.467-0.52-3.202-0.85-4.954-0.85c-1.944-0.009-3.835,0.408-5.388,1.014 c-1.553,0.599-2.768,1.371-3.705,2.091c-1.874,1.475-2.742,2.715-3.366,3.634c-0.599,0.928-0.92,1.597-1.162,2.144 c-0.46,1.067-0.616,1.657-0.746,2.125c-0.243,0.885-0.278,1.267-0.338,1.588c-0.095,0.582-0.104,0.79-0.122,0.99 c-0.026,0.33-0.035,0.442-0.044,0.555c-0.017,0.346-0.017,0.408-0.017,0.528c0,0.26,0,0.555-0.009,0.946 c-0.009,0.616-0.044,1.604-0.104,2.924c-0.321,7.279-1.588,24.205-5.683,41.557c-2.039,8.667-4.788,17.42-8.285,25.03 c-3.479,7.626-7.721,14.02-12.294,18.323c-6.212,5.9-14.437,10.61-24.102,13.821c-9.647,3.21-20.674,4.885-32.083,4.876 c-11.695,0.009-23.763-1.753-35.094-5.17c-6.35-1.909-12.414-4.399-18.123-7.305l13.082-18.402 c4.946,2.126,10.602,3.739,16.952,3.748c4.165,0.008,8.624-0.755,12.884-2.49c6.342-2.576,11.904-5.891,16.545-9.916 c7.002-6.012,11.678-13.63,14.228-21.273c2.586-7.67,3.297-15.296,3.315-22.522c0-8.069,0-16.137,0-24.206V203.308V177.81 c0-27.016,10.896-51.343,28.595-69.059c17.725-17.699,42.043-28.605,69.059-28.605h192.351c21.837,0,41.47,8.806,55.794,23.104 c14.306,14.333,23.104,33.958,23.112,55.803V431.854z"/> <path class="st0" d="M180.758,183.796c-10.272,0-18.61,8.329-18.61,18.618c0,10.282,8.338,18.61,18.61,18.61 c10.281,0,18.619-8.328,18.619-18.61C199.377,192.124,191.039,183.796,180.758,183.796z"/> <path class="st0" d="M346.206,192.481c-3.661,0-6.619,2.966-6.619,6.62c-0.009,27.433-11.096,52.21-29.073,70.195 c-17.985,17.977-42.763,29.073-70.196,29.073c-3.652,0-6.62,2.967-6.62,6.62c0,3.653,2.968,6.619,6.62,6.619 c62.136-0.008,112.499-50.371,112.499-112.507C352.816,195.447,349.858,192.481,346.206,192.481z"/> </g> </g>
</svg>