<!DOCTYPE svg PUBLIC "-//W3C//DTD SVG 1.1//EN" "http://www.w3.org/Graphics/SVG/1.1/DTD/svg11.dtd">
<!-- Uploaded to: SVG Repo, www.svgrepo.com, Transformed by: SVG Repo Mixer Tools -->
<svg width="800px" height="800px" viewBox="0 0 24 24" fill="none" xmlns="http://www.w3.org/2000/svg">
<g id="SVGRepo_bgCarrier" stroke-width="0"/>
<g id="SVGRepo_tracerCarrier" stroke-linecap="round" stroke-linejoin="round"/>
<g id="SVGRepo_iconCarrier"> <path opacity="0.1" d="M3 10.312C3 5.93757 3.93757 5 8.312 5H15.688C20.0624 5 21 5.93757 21 10.312V15.688C21 20.0624 20.0624 21 15.688 21H8.312C3.93757 21 3 20.0624 3 15.688V10.312Z" fill="#808080"/> <path d="M3 10.312C3 5.93757 3.93757 5 8.312 5H15.688C20.0624 5 21 5.93757 21 10.312V15.688C21 20.0624 20.0624 21 15.688 21H8.312C3.93757 21 3 20.0624 3 15.688V10.312Z" stroke="#808080" stroke-width="2"/> <path d="M6 5L6 3" stroke="#808080" stroke-width="2" stroke-linecap="round"/> <path d="M18 5L18 3" stroke="#808080" stroke-width="2" stroke-linecap="round"/> <path d="M7 9H17" stroke="#808080" stroke-width="2" stroke-linecap="round"/> </g>
</svg>