<?xml version="1.0" encoding="UTF-8" standalone="no"?>
<!DOCTYPE svg PUBLIC "-//W3C//DTD SVG 1.1//EN" "http://www.w3.org/Graphics/SVG/1.1/DTD/svg11.dtd">
<!-- Created with Vectornator (http://vectornator.io/) -->
<svg height="100%" stroke-miterlimit="10" style="fill-rule:nonzero;clip-rule:evenodd;stroke-linecap:round;stroke-linejoin:round;" version="1.1" viewBox="0 0 4000 4000" width="100%" xml:space="preserve" xmlns="http://www.w3.org/2000/svg" xmlns:xlink="http://www.w3.org/1999/xlink">
<defs/>
<clipPath id="ArtboardFrame">
<rect height="4000" width="4000" x="0" y="0"/>
</clipPath>
<g clip-path="url(#ArtboardFrame)" id="Background" visibility="hidden">
<path d="M-188.312-522.526L4056.69-522.526C4396.48-522.526 4671.93-258.955 4671.93 66.176L4671.93 3838.86C4671.93 4164 4396.48 4427.57 4056.69 4427.57L-188.312 4427.57C-528.103 4427.57-803.558 4164-803.558 3838.86L-803.558 66.176C-803.558-258.955-528.103-522.526-188.312-522.526Z" fill="#000000" fill-rule="nonzero" opacity="1" stroke="#000000" stroke-linecap="round" stroke-linejoin="round" stroke-width="256.326"/>
</g>
<g id="Right">
<path d="M2586.93 963.137L2676.23 879.105C3017.06 558.392 3287.9 677.747 3281.17 1145.69L3268.85 2002.65L3256.53 2859.61C3249.8 3327.56 2973.72 3441.02 2639.88 3113.04L2363.95 2841.95L1410.18 1910.25" fill="#ffffff" fill-opacity="0" fill-rule="nonzero" opacity="1" stroke="#ffffff" stroke-linecap="round" stroke-linejoin="round" stroke-width="300"/>
</g>
<g id="Left">
<path d="M1412.44 3031.55L1324.03 3116.52C986.592 3440.79 714.513 3324.29 716.324 2856.3L719.641 1999.25L722.957 1142.21C724.768 674.22 999.642 557.863 1336.9 882.321L1615.67 1150.5L2579.17 2072.12" fill="#ffffff" fill-opacity="0" fill-rule="nonzero" opacity="1" stroke="#ffffff" stroke-linecap="round" stroke-linejoin="round" stroke-width="300"/>
</g>
</svg>
